TITLE ""
FILE "Disc6Track18.mp3" MP3
  TRACK 01 AUDIO
    TITLE "Disc6Track18_01"
    INDEX 01 00:00:00
  TRACK 02 AUDIO
    TITLE "Disc6Track18_02"
    INDEX 01 00:01:08
  TRACK 03 AUDIO
    TITLE "Disc6Track18_03"
    INDEX 01 00:05:29
  TRACK 04 AUDIO
    TITLE "Disc6Track18_04"
    INDEX 01 00:06:46
  TRACK 05 AUDIO
    TITLE "Disc6Track18_05"
    INDEX 01 00:09:46
  TRACK 06 AUDIO
    TITLE "Disc6Track18_06"
    INDEX 01 00:10:03
  TRACK 07 AUDIO
    TITLE "Disc6Track18_07"
    INDEX 01 00:11:28
  TRACK 08 AUDIO
    TITLE "Disc6Track18_08"
    INDEX 01 00:12:29
  TRACK 09 AUDIO
    TITLE "Disc6Track18_09"
    INDEX 01 00:13:58
  TRACK 10 AUDIO
    TITLE "Disc6Track18_10"
    INDEX 01 00:14:16
  TRACK 11 AUDIO
    TITLE "Disc6Track18_11"
    INDEX 01 00:15:29
  TRACK 12 AUDIO
    TITLE "Disc6Track18_12"
    INDEX 01 00:17:21
  TRACK 13 AUDIO
    TITLE "Disc6Track18_13"
    INDEX 01 00:18:34
  TRACK 14 AUDIO
    TITLE "Disc6Track18_14"
    INDEX 01 00:22:24
  TRACK 15 AUDIO
    TITLE "Disc6Track18_15"
    INDEX 01 00:22:53
  TRACK 16 AUDIO
    TITLE "Disc6Track18_16"
    INDEX 01 00:24:13
  TRACK 17 AUDIO
    TITLE "Disc6Track18_17"
    INDEX 01 00:25:16
  TRACK 18 AUDIO
    TITLE "Disc6Track18_18"
    INDEX 01 00:26:49
  TRACK 19 AUDIO
    TITLE "Disc6Track18_19"
    INDEX 01 00:29:63
  TRACK 20 AUDIO
    TITLE "Disc6Track18_20"
    INDEX 01 00:30:17
  TRACK 21 AUDIO
    TITLE "Disc6Track18_21"
    INDEX 01 00:31:32
  TRACK 22 AUDIO
    TITLE "Disc6Track18_22"
    INDEX 01 00:32:63
  TRACK 23 AUDIO
    TITLE "Disc6Track18_23"
    INDEX 01 00:34:01
  TRACK 24 AUDIO
    TITLE "Disc6Track18_24"
    INDEX 01 00:35:64
  TRACK 25 AUDIO
    TITLE "Disc6Track18_25"
    INDEX 01 00:36:18
  TRACK 26 AUDIO
    TITLE "Disc6Track18_26"
    INDEX 01 00:37:39
  TRACK 27 AUDIO
    TITLE "Disc6Track18_27"
    INDEX 01 00:39:22
  TRACK 28 AUDIO
    TITLE "Disc6Track18_28"
    INDEX 01 00:40:47
  TRACK 29 AUDIO
    TITLE "Disc6Track18_29"
    INDEX 01 00:41:05
  TRACK 30 AUDIO
    TITLE "Disc6Track18_30"
    INDEX 01 00:42:30
  TRACK 31 AUDIO
    TITLE "Disc6Track18_31"
    INDEX 01 00:46:38
  TRACK 32 AUDIO
    TITLE "Disc6Track18_32"
    INDEX 01 00:47:59
  TRACK 33 AUDIO
    TITLE "Disc6Track18_33"
    INDEX 01 00:49:40
  TRACK 34 AUDIO
    TITLE "Disc6Track18_34"
    INDEX 01 00:49:71
  TRACK 35 AUDIO
    TITLE "Disc6Track18_35"
    INDEX 01 00:51:19
  TRACK 36 AUDIO
    TITLE "Disc6Track18_36"
    INDEX 01 00:52:29
  TRACK 37 AUDIO
    TITLE "Disc6Track18_37"
    INDEX 01 00:53:52
  TRACK 38 AUDIO
    TITLE "Disc6Track18_38"
    INDEX 01 00:56:05
  TRACK 39 AUDIO
    TITLE "Disc6Track18_39"
    INDEX 01 00:56:34
  TRACK 40 AUDIO
    TITLE "Disc6Track18_40"
    INDEX 01 00:57:65
  TRACK 41 AUDIO
    TITLE "Disc6Track18_41"
    INDEX 01 00:59:17
  TRACK 42 AUDIO
    TITLE "Disc6Track18_42"
    INDEX 01 01:00:48
  TRACK 43 AUDIO
    TITLE "Disc6Track18_43"
    INDEX 01 01:05:27
